<?xml version="1.0" encoding="UTF-8" standalone="no"?>
<svg
   xmlns:dc="http://purl.org/dc/elements/1.1/"
   xmlns:cc="http://creativecommons.org/ns#"
   xmlns:rdf="http://www.w3.org/1999/02/22-rdf-syntax-ns#"
   xmlns:svg="http://www.w3.org/2000/svg"
   xmlns="http://www.w3.org/2000/svg"
   xmlns:sodipodi="http://sodipodi.sourceforge.net/DTD/sodipodi-0.dtd"
   xmlns:inkscape="http://www.inkscape.org/namespaces/inkscape"
   id="svg8"
   version="1.1"
   viewBox="0 0 9.1648226 5.227212"
   height="5.227212mm"
   width="9.1648226mm"
   sodipodi:docname="MLL_logo.svg"
   inkscape:version="0.92.5 (2060ec1f9f, 2020-04-08)">
  <sodipodi:namedview
     pagecolor="#ffffff"
     bordercolor="#666666"
     borderopacity="1"
     objecttolerance="10"
     gridtolerance="10"
     guidetolerance="10"
     inkscape:pageopacity="0"
     inkscape:pageshadow="2"
     inkscape:window-width="1866"
     inkscape:window-height="1016"
     id="namedview159"
     showgrid="false"
     fit-margin-top="0"
     fit-margin-left="0"
     fit-margin-right="0"
     fit-margin-bottom="0"
     inkscape:zoom="14.584483"
     inkscape:cx="9.3988995"
     inkscape:cy="9.7900342"
     inkscape:window-x="54"
     inkscape:window-y="27"
     inkscape:window-maximized="1"
     inkscape:current-layer="svg8" />
  <defs
     id="defs2">
    <marker
       orient="auto"
       refY="0"
       refX="0"
       id="marker2351"
       style="overflow:visible">
      <path
         id="path2349"
         d="M 5.77,0 -2.88,5 V -5 Z"
         style="fill:#ffffff;fill-opacity:1;fill-rule:evenodd;stroke:#fdfdfd;stroke-width:1.00000003pt;stroke-opacity:1"
         transform="scale(0.4)"
         inkscape:connector-curvature="0" />
    </marker>
    <marker
       style="overflow:visible"
       id="TriangleOutM"
       refX="0"
       refY="0"
       orient="auto">
      <path
         transform="scale(0.4)"
         style="fill:#7a9fcb;fill-opacity:1;fill-rule:evenodd;stroke:#7a9fcb;stroke-width:1.00000003pt;stroke-opacity:1"
         d="M 5.77,0 -2.88,5 V -5 Z"
         id="path1446"
         inkscape:connector-curvature="0" />
    </marker>
    <marker
       style="overflow:visible"
       id="marker1711"
       refX="0"
       refY="0"
       orient="auto">
      <path
         transform="matrix(-0.2,0,0,-0.2,-1.2,0)"
         style="fill:#7a9fcb;fill-opacity:1;fill-rule:evenodd;stroke:#7a9fcb;stroke-width:1.00000003pt;stroke-opacity:1"
         d="M 0,0 5,-5 -12.5,0 5,5 Z"
         id="path1709"
         inkscape:connector-curvature="0" />
    </marker>
    <marker
       style="overflow:visible"
       id="Arrow2Send"
       refX="0"
       refY="0"
       orient="auto">
      <path
         transform="matrix(-0.3,0,0,-0.3,0.69,0)"
         d="M 8.7185878,4.0337352 -2.2072895,0.01601326 8.7185884,-4.0017078 c -1.7454984,2.3720609 -1.7354408,5.6174519 -6e-7,8.035443 z"
         style="fill:#7a9fcb;fill-opacity:1;fill-rule:evenodd;stroke:#7a9fcb;stroke-width:0.625;stroke-linejoin:round;stroke-opacity:1"
         id="path1334"
         inkscape:connector-curvature="0" />
    </marker>
    <marker
       style="overflow:visible"
       id="Arrow2Mend"
       refX="0"
       refY="0"
       orient="auto">
      <path
         transform="scale(-0.6)"
         d="M 8.7185878,4.0337352 -2.2072895,0.01601326 8.7185884,-4.0017078 c -1.7454984,2.3720609 -1.7354408,5.6174519 -6e-7,8.035443 z"
         style="fill:#7a9fcb;fill-opacity:1;fill-rule:evenodd;stroke:#7a9fcb;stroke-width:0.625;stroke-linejoin:round;stroke-opacity:1"
         id="path1328"
         inkscape:connector-curvature="0" />
    </marker>
    <marker
       style="overflow:visible"
       id="Arrow1Send"
       refX="0"
       refY="0"
       orient="auto">
      <path
         transform="matrix(-0.2,0,0,-0.2,-1.2,0)"
         style="fill:#7a9fcb;fill-opacity:1;fill-rule:evenodd;stroke:#7a9fcb;stroke-width:1.00000003pt;stroke-opacity:1"
         d="M 0,0 5,-5 -12.5,0 5,5 Z"
         id="path1316"
         inkscape:connector-curvature="0" />
    </marker>
    <marker
       style="overflow:visible"
       id="Arrow1Lend"
       refX="0"
       refY="0"
       orient="auto">
      <path
         transform="matrix(-0.8,0,0,-0.8,-10,0)"
         style="fill:#7a9fcb;fill-opacity:1;fill-rule:evenodd;stroke:#7a9fcb;stroke-width:1.00000003pt;stroke-opacity:1"
         d="M 0,0 5,-5 -12.5,0 5,5 Z"
         id="path1304"
         inkscape:connector-curvature="0" />
    </marker>
    <marker
       style="overflow:visible"
       id="TriangleOutM-6"
       refX="0"
       refY="0"
       orient="auto">
      <path
         transform="scale(0.4)"
         style="fill:#7a9fcb;fill-opacity:1;fill-rule:evenodd;stroke:#7a9fcb;stroke-width:1.00000003pt;stroke-opacity:1"
         d="M 5.77,0 -2.88,5 V -5 Z"
         id="path1446-3"
         inkscape:connector-curvature="0" />
    </marker>
    <marker
       style="overflow:visible"
       id="TriangleOutM-6-0"
       refX="0"
       refY="0"
       orient="auto">
      <path
         transform="scale(0.4)"
         style="fill:#7a9fcb;fill-opacity:1;fill-rule:evenodd;stroke:#7a9fcb;stroke-width:1.00000003pt;stroke-opacity:1"
         d="M 5.77,0 -2.88,5 V -5 Z"
         id="path1446-3-6"
         inkscape:connector-curvature="0" />
    </marker>
    <marker
       style="overflow:visible"
       id="TriangleOutM-6-5"
       refX="0"
       refY="0"
       orient="auto">
      <path
         transform="scale(0.4)"
         style="fill:#7a9fcb;fill-opacity:1;fill-rule:evenodd;stroke:#7a9fcb;stroke-width:1.00000003pt;stroke-opacity:1"
         d="M 5.77,0 -2.88,5 V -5 Z"
         id="path1446-3-5"
         inkscape:connector-curvature="0" />
    </marker>
    <marker
       style="overflow:visible"
       id="TriangleOutM-3"
       refX="0"
       refY="0"
       orient="auto">
      <path
         transform="scale(0.4)"
         style="fill:#7a9fcb;fill-opacity:1;fill-rule:evenodd;stroke:#7a9fcb;stroke-width:1.00000003pt;stroke-opacity:1"
         d="M 5.77,0 -2.88,5 V -5 Z"
         id="path1446-6"
         inkscape:connector-curvature="0" />
    </marker>
  </defs>
  <metadata
     id="metadata5">
    <rdf:RDF>
      <cc:Work
         rdf:about="">
        <dc:format>image/svg+xml</dc:format>
        <dc:type
           rdf:resource="http://purl.org/dc/dcmitype/StillImage" />
        <dc:title></dc:title>
      </cc:Work>
    </rdf:RDF>
  </metadata>
  <path
     inkscape:connector-curvature="0"
     style="opacity:1;vector-effect:none;fill:#7a9fcb;fill-opacity:1;stroke:none;stroke-width:0.00264583;stroke-linecap:round;stroke-linejoin:round;stroke-miterlimit:4;stroke-dasharray:none;stroke-dashoffset:0;stroke-opacity:1"
     d="M 0,0.06890611 V 2.7390273 H 1.9306314 V 0.06890611 Z M 1.0588501,1.022853 c 0.00301,0.00121 0.6562895,0.378909 0.6578409,0.3803386 0.0013,0.0012 -0.081575,0.049824 -0.3271118,0.1917196 -0.1808381,0.1045066 -0.3294135,0.190418 -0.3302124,0.190686 -9.552e-4,3.201e-4 -0.00155,-0.051794 -0.00155,-0.1519287 V 1.4817398 H 0.63613687 0.21445719 V 1.4042251 1.3267105 H 0.63613687 1.0578165 V 1.1747818 c 0,-0.083672 3.678e-4,-0.1521967 0.00103,-0.1519288 z"
     id="rect1054" />
  <g
     id="g1312"
     transform="translate(-5.3688515,-5.7282762)">
    <path
       inkscape:connector-curvature="0"
       id="path1122"
       d="M 8.2506232,8.4797101 C 7.9640341,8.4738364 7.7214948,8.4689865 7.7116471,8.4689336 l -0.017905,-9.42e-5 V 8.2216339 7.9744284 l 0.00621,6.88e-4 c 0.00342,3.704e-4 0.2461203,0.023323 0.5393415,0.050981 l 0.5331296,0.050287 v 0.2071864 c 0,0.1139526 -1.643e-4,0.2071026 -3.704e-4,0.2070002 C 8.7718517,8.4904684 8.5372055,8.485581 8.2506162,8.479702 Z"
       style="opacity:1;vector-effect:none;fill:#7a9fcb;fill-opacity:1;stroke:#000000;stroke-width:0.00001462;stroke-linecap:round;stroke-linejoin:round;stroke-miterlimit:4;stroke-dasharray:none;stroke-dashoffset:0;stroke-opacity:1" />
    <path
       inkscape:connector-curvature="0"
       id="path1124"
       d="M 8.2301604,7.6183464 7.6944729,7.532588 7.6941025,7.3392971 7.6937321,7.1460063 l 0.00329,8.017e-4 c 0.00181,4.392e-4 0.2430379,0.053063 0.5360582,0.1169391 0.2930204,0.063876 0.5342442,0.1164889 0.5360528,0.1169175 l 0.00329,7.805e-4 v 0.1614823 0.1614821 l -0.00329,-1.511e-4 c -0.0018,-8.33e-5 -0.244348,-0.038743 -0.538976,-0.08591 z"
       style="opacity:1;vector-effect:none;fill:#7a9fcb;fill-opacity:1;stroke:#000000;stroke-width:0.00001462;stroke-linecap:round;stroke-linejoin:round;stroke-miterlimit:4;stroke-dasharray:none;stroke-dashoffset:0;stroke-opacity:1" />
    <path
       inkscape:connector-curvature="0"
       id="path1126"
       d="M 8.2360069,6.9778038 C 7.9413788,6.9000123 7.6988396,6.835986 7.6970308,6.8355232 L 7.693742,6.8346818 V 6.7023336 c 0,-0.1253674 1.349e-4,-0.1323072 0.00256,-0.1315713 0.299339,0.090916 1.0754708,0.3271454 1.0757492,0.3274238 2.169e-4,2.169e-4 2.259e-4,0.050044 1.98e-5,0.1107257 L 8.7716992,7.119243 Z"
       style="opacity:1;vector-effect:none;fill:#7a9fcb;fill-opacity:1;stroke:#000000;stroke-width:0.00001462;stroke-linecap:round;stroke-linejoin:round;stroke-miterlimit:4;stroke-dasharray:none;stroke-dashoffset:0;stroke-opacity:1" />
    <path
       inkscape:connector-curvature="0"
       id="path1128"
       d="M 8.2330837,6.5015475 7.6944729,6.3177552 7.6940982,6.2093772 c -2.061e-4,-0.059608 6.6e-6,-0.108378 4.736e-4,-0.108378 0.00163,0 1.0756725,0.4022558 1.0767692,0.4032775 6.085e-4,5.663e-4 9.26e-4,0.041539 7.408e-4,0.091048 l -3.704e-4,0.090016 z"
       style="opacity:1;vector-effect:none;fill:#7a9fcb;fill-opacity:1;stroke:#000000;stroke-width:0.00001462;stroke-linecap:round;stroke-linejoin:round;stroke-miterlimit:4;stroke-dasharray:none;stroke-dashoffset:0;stroke-opacity:1" />
    <path
       inkscape:connector-curvature="0"
       id="path1130"
       d="M 8.2320033,6.118737 7.6937739,5.9014866 7.693758,5.814885 c -8.7e-6,-0.047631 2.084e-4,-0.086602 4.815e-4,-0.086602 2.752e-4,0 0.2428134,0.1041765 0.5389762,0.2315033 l 0.5384777,0.2315032 3.704e-4,0.072516 C 8.772272,6.3036895 8.7719432,6.3362464 8.771323,6.3361544 8.7707144,6.3360625 8.52801,6.2382246 8.2319838,6.118737 Z"
       style="opacity:1;vector-effect:none;fill:#7a9fcb;fill-opacity:1;stroke:#000000;stroke-width:0.00001462;stroke-linecap:round;stroke-linejoin:round;stroke-miterlimit:4;stroke-dasharray:none;stroke-dashoffset:0;stroke-opacity:1" />
  </g>
  <path
     inkscape:connector-curvature="0"
     style="fill:#7a9fcb;fill-opacity:1;stroke:none;stroke-width:0.26458332px;stroke-linecap:butt;stroke-linejoin:miter;stroke-opacity:1"
     d="M 3.7978209,0.99941742 V 2.7743458 l 5.3670014,0.1093517 v 2.3435144 z"
     id="path1305"
     sodipodi:nodetypes="ccccc" />
  <g
     id="g2236"
     transform="translate(-4.6823066,-5.1436241)" />
</svg>
