<?xml version="1.0" encoding="utf-8" standalone="no"?>
<!DOCTYPE svg PUBLIC "-//W3C//DTD SVG 1.1//EN"
  "http://www.w3.org/Graphics/SVG/1.1/DTD/svg11.dtd">
<svg height="141.12pt" version="1.1" viewBox="0 0 324.72 141.12" width="324.72pt" xmlns="http://www.w3.org/2000/svg" xmlns:xlink="http://www.w3.org/1999/xlink">
 <metadata>
  <rdf:RDF xmlns:cc="http://creativecommons.org/ns#" xmlns:dc="http://purl.org/dc/elements/1.1/" xmlns:rdf="http://www.w3.org/1999/02/22-rdf-syntax-ns#">
   <cc:Work>
    <dc:type rdf:resource="http://purl.org/dc/dcmitype/StillImage"/>
    <dc:date>2022-07-14T14:11:39.601763</dc:date>
    <dc:format>image/svg+xml</dc:format>
    <dc:creator>
     <cc:Agent>
      <dc:title>Matplotlib v3.4.2, https://matplotlib.org/</dc:title>
     </cc:Agent>
    </dc:creator>
   </cc:Work>
  </rdf:RDF>
 </metadata>
 <defs>
  <style type="text/css">*{stroke-linecap:butt;stroke-linejoin:round;}</style>
 </defs>
 <g id="figure_1">
  <g id="patch_1">
   <path d="M 0 141.12 
L 324.72 141.12 
L 324.72 0 
L 0 0 
z
" style="fill:#ffffff;"/>
  </g>
  <g id="axes_1">
   <g id="patch_2">
    <path d="M 40.59 125.5968 
L 292.248 125.5968 
L 292.248 16.9344 
L 40.59 16.9344 
z
" style="fill:#ffffff;"/>
   </g>
   <g id="matplotlib.axis_1">
    <g id="xtick_1">
     <g id="line2d_1">
      <defs>
       <path d="M 0 0 
L 0 3.5 
" id="m679e81f0eb" style="stroke:#000000;stroke-width:0.8;"/>
      </defs>
      <g>
       <use style="stroke:#000000;stroke-width:0.8;" x="52.029" xlink:href="#m679e81f0eb" y="125.5968"/>
      </g>
     </g>
     <g id="text_1">
      <!-- 0 -->
      <g transform="translate(48.84775 140.195238)scale(0.1 -0.1)">
       <defs>
        <path d="M 2034 4250 
Q 1547 4250 1301 3770 
Q 1056 3291 1056 2328 
Q 1056 1369 1301 889 
Q 1547 409 2034 409 
Q 2525 409 2770 889 
Q 3016 1369 3016 2328 
Q 3016 3291 2770 3770 
Q 2525 4250 2034 4250 
z
M 2034 4750 
Q 2819 4750 3233 4129 
Q 3647 3509 3647 2328 
Q 3647 1150 3233 529 
Q 2819 -91 2034 -91 
Q 1250 -91 836 529 
Q 422 1150 422 2328 
Q 422 3509 836 4129 
Q 1250 4750 2034 4750 
z
" id="DejaVuSans-30" transform="scale(0.015625)"/>
       </defs>
       <use xlink:href="#DejaVuSans-30"/>
      </g>
     </g>
    </g>
    <g id="xtick_2">
     <g id="line2d_2">
      <g>
       <use style="stroke:#000000;stroke-width:0.8;" x="97.830802" xlink:href="#m679e81f0eb" y="125.5968"/>
      </g>
     </g>
     <g id="text_2">
      <!-- 200 -->
      <g transform="translate(88.287052 140.195238)scale(0.1 -0.1)">
       <defs>
        <path d="M 1228 531 
L 3431 531 
L 3431 0 
L 469 0 
L 469 531 
Q 828 903 1448 1529 
Q 2069 2156 2228 2338 
Q 2531 2678 2651 2914 
Q 2772 3150 2772 3378 
Q 2772 3750 2511 3984 
Q 2250 4219 1831 4219 
Q 1534 4219 1204 4116 
Q 875 4013 500 3803 
L 500 4441 
Q 881 4594 1212 4672 
Q 1544 4750 1819 4750 
Q 2544 4750 2975 4387 
Q 3406 4025 3406 3419 
Q 3406 3131 3298 2873 
Q 3191 2616 2906 2266 
Q 2828 2175 2409 1742 
Q 1991 1309 1228 531 
z
" id="DejaVuSans-32" transform="scale(0.015625)"/>
       </defs>
       <use xlink:href="#DejaVuSans-32"/>
       <use x="63.623047" xlink:href="#DejaVuSans-30"/>
       <use x="127.246094" xlink:href="#DejaVuSans-30"/>
      </g>
     </g>
    </g>
    <g id="xtick_3">
     <g id="line2d_3">
      <g>
       <use style="stroke:#000000;stroke-width:0.8;" x="143.632604" xlink:href="#m679e81f0eb" y="125.5968"/>
      </g>
     </g>
     <g id="text_3">
      <!-- 400 -->
      <g transform="translate(134.088854 140.195238)scale(0.1 -0.1)">
       <defs>
        <path d="M 2419 4116 
L 825 1625 
L 2419 1625 
L 2419 4116 
z
M 2253 4666 
L 3047 4666 
L 3047 1625 
L 3713 1625 
L 3713 1100 
L 3047 1100 
L 3047 0 
L 2419 0 
L 2419 1100 
L 313 1100 
L 313 1709 
L 2253 4666 
z
" id="DejaVuSans-34" transform="scale(0.015625)"/>
       </defs>
       <use xlink:href="#DejaVuSans-34"/>
       <use x="63.623047" xlink:href="#DejaVuSans-30"/>
       <use x="127.246094" xlink:href="#DejaVuSans-30"/>
      </g>
     </g>
    </g>
    <g id="xtick_4">
     <g id="line2d_4">
      <g>
       <use style="stroke:#000000;stroke-width:0.8;" x="189.434405" xlink:href="#m679e81f0eb" y="125.5968"/>
      </g>
     </g>
     <g id="text_4">
      <!-- 600 -->
      <g transform="translate(179.890655 140.195238)scale(0.1 -0.1)">
       <defs>
        <path d="M 2113 2584 
Q 1688 2584 1439 2293 
Q 1191 2003 1191 1497 
Q 1191 994 1439 701 
Q 1688 409 2113 409 
Q 2538 409 2786 701 
Q 3034 994 3034 1497 
Q 3034 2003 2786 2293 
Q 2538 2584 2113 2584 
z
M 3366 4563 
L 3366 3988 
Q 3128 4100 2886 4159 
Q 2644 4219 2406 4219 
Q 1781 4219 1451 3797 
Q 1122 3375 1075 2522 
Q 1259 2794 1537 2939 
Q 1816 3084 2150 3084 
Q 2853 3084 3261 2657 
Q 3669 2231 3669 1497 
Q 3669 778 3244 343 
Q 2819 -91 2113 -91 
Q 1303 -91 875 529 
Q 447 1150 447 2328 
Q 447 3434 972 4092 
Q 1497 4750 2381 4750 
Q 2619 4750 2861 4703 
Q 3103 4656 3366 4563 
z
" id="DejaVuSans-36" transform="scale(0.015625)"/>
       </defs>
       <use xlink:href="#DejaVuSans-36"/>
       <use x="63.623047" xlink:href="#DejaVuSans-30"/>
       <use x="127.246094" xlink:href="#DejaVuSans-30"/>
      </g>
     </g>
    </g>
    <g id="xtick_5">
     <g id="line2d_5">
      <g>
       <use style="stroke:#000000;stroke-width:0.8;" x="235.236207" xlink:href="#m679e81f0eb" y="125.5968"/>
      </g>
     </g>
     <g id="text_5">
      <!-- 800 -->
      <g transform="translate(225.692457 140.195238)scale(0.1 -0.1)">
       <defs>
        <path d="M 2034 2216 
Q 1584 2216 1326 1975 
Q 1069 1734 1069 1313 
Q 1069 891 1326 650 
Q 1584 409 2034 409 
Q 2484 409 2743 651 
Q 3003 894 3003 1313 
Q 3003 1734 2745 1975 
Q 2488 2216 2034 2216 
z
M 1403 2484 
Q 997 2584 770 2862 
Q 544 3141 544 3541 
Q 544 4100 942 4425 
Q 1341 4750 2034 4750 
Q 2731 4750 3128 4425 
Q 3525 4100 3525 3541 
Q 3525 3141 3298 2862 
Q 3072 2584 2669 2484 
Q 3125 2378 3379 2068 
Q 3634 1759 3634 1313 
Q 3634 634 3220 271 
Q 2806 -91 2034 -91 
Q 1263 -91 848 271 
Q 434 634 434 1313 
Q 434 1759 690 2068 
Q 947 2378 1403 2484 
z
M 1172 3481 
Q 1172 3119 1398 2916 
Q 1625 2713 2034 2713 
Q 2441 2713 2670 2916 
Q 2900 3119 2900 3481 
Q 2900 3844 2670 4047 
Q 2441 4250 2034 4250 
Q 1625 4250 1398 4047 
Q 1172 3844 1172 3481 
z
" id="DejaVuSans-38" transform="scale(0.015625)"/>
       </defs>
       <use xlink:href="#DejaVuSans-38"/>
       <use x="63.623047" xlink:href="#DejaVuSans-30"/>
       <use x="127.246094" xlink:href="#DejaVuSans-30"/>
      </g>
     </g>
    </g>
    <g id="xtick_6">
     <g id="line2d_6">
      <g>
       <use style="stroke:#000000;stroke-width:0.8;" x="281.038009" xlink:href="#m679e81f0eb" y="125.5968"/>
      </g>
     </g>
     <g id="text_6">
      <!-- 1000 -->
      <g transform="translate(268.313009 140.195238)scale(0.1 -0.1)">
       <defs>
        <path d="M 794 531 
L 1825 531 
L 1825 4091 
L 703 3866 
L 703 4441 
L 1819 4666 
L 2450 4666 
L 2450 531 
L 3481 531 
L 3481 0 
L 794 0 
L 794 531 
z
" id="DejaVuSans-31" transform="scale(0.015625)"/>
       </defs>
       <use xlink:href="#DejaVuSans-31"/>
       <use x="63.623047" xlink:href="#DejaVuSans-30"/>
       <use x="127.246094" xlink:href="#DejaVuSans-30"/>
       <use x="190.869141" xlink:href="#DejaVuSans-30"/>
      </g>
     </g>
    </g>
   </g>
   <g id="matplotlib.axis_2">
    <g id="ytick_1">
     <g id="line2d_7">
      <defs>
       <path d="M 0 0 
L -3.5 0 
" id="m9105e48389" style="stroke:#000000;stroke-width:0.8;"/>
      </defs>
      <g>
       <use style="stroke:#000000;stroke-width:0.8;" x="40.59" xlink:href="#m9105e48389" y="120.6576"/>
      </g>
     </g>
     <g id="text_7">
      <!-- 0.00 -->
      <g transform="translate(11.324375 124.456819)scale(0.1 -0.1)">
       <defs>
        <path d="M 684 794 
L 1344 794 
L 1344 0 
L 684 0 
L 684 794 
z
" id="DejaVuSans-2e" transform="scale(0.015625)"/>
       </defs>
       <use xlink:href="#DejaVuSans-30"/>
       <use x="63.623047" xlink:href="#DejaVuSans-2e"/>
       <use x="95.410156" xlink:href="#DejaVuSans-30"/>
       <use x="159.033203" xlink:href="#DejaVuSans-30"/>
      </g>
     </g>
    </g>
    <g id="ytick_2">
     <g id="line2d_8">
      <g>
       <use style="stroke:#000000;stroke-width:0.8;" x="40.59" xlink:href="#m9105e48389" y="95.961373"/>
      </g>
     </g>
     <g id="text_8">
      <!-- 0.25 -->
      <g transform="translate(11.324375 99.760591)scale(0.1 -0.1)">
       <defs>
        <path d="M 691 4666 
L 3169 4666 
L 3169 4134 
L 1269 4134 
L 1269 2991 
Q 1406 3038 1543 3061 
Q 1681 3084 1819 3084 
Q 2600 3084 3056 2656 
Q 3513 2228 3513 1497 
Q 3513 744 3044 326 
Q 2575 -91 1722 -91 
Q 1428 -91 1123 -41 
Q 819 9 494 109 
L 494 744 
Q 775 591 1075 516 
Q 1375 441 1709 441 
Q 2250 441 2565 725 
Q 2881 1009 2881 1497 
Q 2881 1984 2565 2268 
Q 2250 2553 1709 2553 
Q 1456 2553 1204 2497 
Q 953 2441 691 2322 
L 691 4666 
z
" id="DejaVuSans-35" transform="scale(0.015625)"/>
       </defs>
       <use xlink:href="#DejaVuSans-30"/>
       <use x="63.623047" xlink:href="#DejaVuSans-2e"/>
       <use x="95.410156" xlink:href="#DejaVuSans-32"/>
       <use x="159.033203" xlink:href="#DejaVuSans-35"/>
      </g>
     </g>
    </g>
    <g id="ytick_3">
     <g id="line2d_9">
      <g>
       <use style="stroke:#000000;stroke-width:0.8;" x="40.59" xlink:href="#m9105e48389" y="71.265145"/>
      </g>
     </g>
     <g id="text_9">
      <!-- 0.50 -->
      <g transform="translate(11.324375 75.064364)scale(0.1 -0.1)">
       <use xlink:href="#DejaVuSans-30"/>
       <use x="63.623047" xlink:href="#DejaVuSans-2e"/>
       <use x="95.410156" xlink:href="#DejaVuSans-35"/>
       <use x="159.033203" xlink:href="#DejaVuSans-30"/>
      </g>
     </g>
    </g>
    <g id="ytick_4">
     <g id="line2d_10">
      <g>
       <use style="stroke:#000000;stroke-width:0.8;" x="40.59" xlink:href="#m9105e48389" y="46.568918"/>
      </g>
     </g>
     <g id="text_10">
      <!-- 0.75 -->
      <g transform="translate(11.324375 50.368137)scale(0.1 -0.1)">
       <defs>
        <path d="M 525 4666 
L 3525 4666 
L 3525 4397 
L 1831 0 
L 1172 0 
L 2766 4134 
L 525 4134 
L 525 4666 
z
" id="DejaVuSans-37" transform="scale(0.015625)"/>
       </defs>
       <use xlink:href="#DejaVuSans-30"/>
       <use x="63.623047" xlink:href="#DejaVuSans-2e"/>
       <use x="95.410156" xlink:href="#DejaVuSans-37"/>
       <use x="159.033203" xlink:href="#DejaVuSans-35"/>
      </g>
     </g>
    </g>
    <g id="ytick_5">
     <g id="line2d_11">
      <g>
       <use style="stroke:#000000;stroke-width:0.8;" x="40.59" xlink:href="#m9105e48389" y="21.872691"/>
      </g>
     </g>
     <g id="text_11">
      <!-- 1.00 -->
      <g transform="translate(11.324375 25.67191)scale(0.1 -0.1)">
       <use xlink:href="#DejaVuSans-31"/>
       <use x="63.623047" xlink:href="#DejaVuSans-2e"/>
       <use x="95.410156" xlink:href="#DejaVuSans-30"/>
       <use x="159.033203" xlink:href="#DejaVuSans-30"/>
      </g>
     </g>
    </g>
   </g>
   <g id="line2d_12">
    <path clip-path="url(#p5e305a28c6)" d="M 52.029 120.6576 
L 109.73927 120.549936 
L 112.716387 120.318007 
L 114.777468 119.950603 
L 116.380532 119.450129 
L 117.754586 118.79328 
L 118.899631 118.025853 
L 120.044676 117.000234 
L 121.189721 115.653877 
L 122.334766 113.918239 
L 123.479811 111.721569 
L 124.624856 108.992964 
L 125.769901 105.667716 
L 126.914946 101.693776 
L 128.289 96.025365 
L 129.663054 89.375887 
L 131.266117 80.478516 
L 133.327198 67.668446 
L 137.678369 40.199654 
L 139.052423 33.06869 
L 140.197468 28.250952 
L 141.113505 25.287795 
L 141.800532 23.64327 
L 142.487559 22.525051 
L 142.945577 22.081571 
L 143.403595 21.883826 
L 143.861613 21.933299 
L 144.319631 22.22962 
L 144.777649 22.770566 
L 145.464676 24.031327 
L 146.151703 25.811934 
L 147.067739 28.942787 
L 147.983775 32.854503 
L 149.12882 38.673757 
L 150.731883 48.112009 
L 154.396027 71.774779 
L 156.457108 84.172507 
L 158.060171 92.598406 
L 159.434225 98.794121 
L 160.808279 104.001545 
L 162.182333 108.251542 
L 163.327378 111.117803 
L 164.472423 113.435807 
L 165.617468 115.275503 
L 166.762514 116.70886 
L 167.907559 117.805491 
L 169.052604 118.629569 
L 170.426658 119.33815 
L 172.029721 119.880813 
L 173.861793 120.247434 
L 175.922874 120.444054 
L 177.525937 120.419973 
L 178.670982 120.186317 
L 179.358009 119.865941 
L 180.045036 119.318875 
L 180.732063 118.439124 
L 181.41909 117.096257 
L 182.106117 115.145839 
L 182.793144 112.449922 
L 183.480171 108.907617 
L 184.396207 102.837432 
L 185.541252 93.5176 
L 187.373324 78.445454 
L 188.060351 74.369571 
L 188.518369 72.51974 
L 188.976387 71.4798 
L 189.205396 71.282352 
L 189.434405 71.304381 
L 189.663414 71.545594 
L 190.121432 72.669894 
L 190.57945 74.5963 
L 191.266477 78.764722 
L 192.182514 85.973093 
L 194.472604 104.818158 
L 195.38864 110.43814 
L 196.304676 114.517563 
L 196.991703 116.658883 
L 197.67873 118.155736 
L 198.365757 119.153765 
L 199.052784 119.789179 
L 199.96882 120.265232 
L 201.113865 120.526114 
L 202.945937 120.639461 
L 209.816207 120.657599 
L 280.809 120.6576 
L 280.809 120.6576 
" style="fill:none;stroke:#1f77b4;stroke-linecap:square;stroke-width:1.5;"/>
   </g>
   <g id="line2d_13">
    <path clip-path="url(#p5e305a28c6)" d="M 52.029 120.647455 
L 63.021432 120.505708 
L 67.830622 120.229672 
L 71.265757 119.808999 
L 73.784856 119.296005 
L 76.074946 118.609271 
L 78.136027 117.750747 
L 79.968099 116.744545 
L 81.800171 115.458538 
L 83.403234 114.062134 
L 85.006297 112.374092 
L 86.60936 110.357737 
L 88.212423 107.978251 
L 89.815486 105.20467 
L 91.41855 102.012141 
L 93.250622 97.830091 
L 95.082694 93.073413 
L 97.143775 87.057299 
L 99.433865 79.626835 
L 102.181973 69.89936 
L 110.197288 40.866915 
L 112.02936 35.233799 
L 113.632423 30.947822 
L 115.006477 27.846516 
L 116.151523 25.715759 
L 117.296568 24.031327 
L 118.212604 23.02233 
L 119.12864 22.325054 
L 120.044676 21.946295 
L 120.731703 21.8736 
L 121.41873 21.982622 
L 122.105757 22.272759 
L 123.021793 22.938439 
L 123.937829 23.916656 
L 124.853865 25.197921 
L 125.99891 27.206626 
L 127.372964 30.174023 
L 128.747018 33.689784 
L 130.350081 38.388258 
L 132.411162 45.177642 
L 135.15927 55.078335 
L 141.800532 79.315212 
L 144.319631 87.47925 
L 146.380712 93.449872 
L 148.212784 98.163717 
L 150.044856 102.302658 
L 151.876928 105.874743 
L 153.479991 108.555746 
L 155.083054 110.84923 
L 156.686117 112.787184 
L 158.28918 114.404936 
L 159.892243 115.739189 
L 161.724315 116.963582 
L 163.556387 117.916918 
L 165.617468 118.7237 
L 167.907559 119.356894 
L 170.426658 119.803749 
L 173.174766 120.052797 
L 175.922874 120.075408 
L 178.441973 119.871653 
L 180.503054 119.496762 
L 182.335126 118.953717 
L 183.938189 118.270369 
L 185.541252 117.346045 
L 187.144315 116.132343 
L 188.518369 114.824859 
L 189.892423 113.241054 
L 191.495486 111.014024 
L 193.09855 108.358453 
L 194.701613 105.274428 
L 196.533685 101.262528 
L 198.823775 95.662379 
L 205.236027 79.565578 
L 206.83909 76.356773 
L 208.213144 74.140478 
L 209.358189 72.740161 
L 210.274225 71.942337 
L 211.190261 71.447815 
L 211.877288 71.281862 
L 212.564315 71.293736 
L 213.251342 71.48331 
L 214.167378 72.008689 
L 215.083414 72.83611 
L 215.99945 73.949949 
L 217.144495 75.71298 
L 218.51855 78.304894 
L 220.121613 81.854609 
L 222.411703 87.562698 
L 227.67891 100.944102 
L 229.739991 105.464172 
L 231.572063 108.928115 
L 233.175126 111.499387 
L 234.778189 113.646062 
L 236.381252 115.393954 
L 237.984315 116.782965 
L 239.587378 117.860901 
L 241.190441 118.67821 
L 243.022514 119.355848 
L 245.083595 119.869722 
L 247.602694 120.249486 
L 250.80882 120.492885 
L 255.847018 120.623826 
L 269.129541 120.657396 
L 280.809 120.657599 
L 280.809 120.657599 
" style="fill:none;stroke:#ff7f0e;stroke-linecap:square;stroke-width:1.5;"/>
   </g>
   <g id="patch_3">
    <path d="M 40.59 125.5968 
L 40.59 16.9344 
" style="fill:none;stroke:#000000;stroke-linecap:square;stroke-linejoin:miter;stroke-width:0.8;"/>
   </g>
   <g id="patch_4">
    <path d="M 292.248 125.5968 
L 292.248 16.9344 
" style="fill:none;stroke:#000000;stroke-linecap:square;stroke-linejoin:miter;stroke-width:0.8;"/>
   </g>
   <g id="patch_5">
    <path d="M 40.59 125.5968 
L 292.248 125.5968 
" style="fill:none;stroke:#000000;stroke-linecap:square;stroke-linejoin:miter;stroke-width:0.8;"/>
   </g>
   <g id="patch_6">
    <path d="M 40.59 16.9344 
L 292.248 16.9344 
" style="fill:none;stroke:#000000;stroke-linecap:square;stroke-linejoin:miter;stroke-width:0.8;"/>
   </g>
  </g>
 </g>
 <defs>
  <clipPath id="p5e305a28c6">
   <rect height="108.6624" width="251.658" x="40.59" y="16.9344"/>
  </clipPath>
 </defs>
</svg>
